<?xml version="1.0" encoding="UTF-8"?><svg id="Layer_1" xmlns="http://www.w3.org/2000/svg" viewBox="0 0 665.7 128.2"><defs><style>.cls-1{fill:#fff;stroke-width:0px;}</style></defs><path class="cls-1" d="m379.6,42c-.1,0-.2-.1-.2-.1-3.1-1.5-6.5-2.5-10-2.9-.3,0-.6-.1-.9-.1s-.6,0-.9-.1h-3.6c-.4,0-.7,0-1,.1-.2,0-.5,0-.7.1-.3,0-.6.1-.9.1h-.1c-.2,0-.4.1-.6.1-.3,0-.5.1-.8.1-.5.1-1.1.2-1.6.4-.1,0-.2,0-.3.1-3.4.9-6.5,2.3-9.4,4.2-.1.1-.2.1-.3.2-.6.4-1.2.8-1.7,1.2-.6.5-1.1.9-1.7,1.4-.3.3-.7.6-1,.9-.3.3-.6.6-.9,1-.3.3-.6.7-.9,1s-.6.7-.9,1h0c-.3.4-.7.9-1,1.3-.2.2-.4.5-.5.8-3.4,5-5.3,11-5.3,17.5,0,7.2,2.4,13.8,6.5,19.1.1.2.3.3.5.5.1.1.2.2.4.4,0,0,0,.1.1.1,8.4,8.9,21.4,11.2,32.7,6.7.9-.4,1.8-.7,2.6-1.2.8-.4,1.6-.8,2.4-1.3v4.2h17.9v-28.6c-.2-12.4-7.4-23.1-17.9-28.2h0Zm0,29.6c0,.6-.1,1.1-.2,1.7v.5c-.1.2-.2.5-.3.7v.1c-.9,2.7-2.5,5-4.7,6.7v-.1c-2.4,1.9-5.3,3-8.5,3-7.6,0-13.8-6.2-13.8-13.8s6.2-13.8,13.8-13.8,13.8,6.2,13.8,13.8l-.1,1.2h0Z"/><circle class="cls-1" cx="194.6" cy="38.9" r="10.5"/><path class="cls-1" d="m93.7,101.8c-17.4,0-31.5-14.1-31.5-31.5s14.1-31.5,31.5-31.5,31.5,14.1,31.5,31.5-14.1,31.5-31.5,31.5Zm0-45.2c-7.6,0-13.8,6.2-13.8,13.8s6.2,13.8,13.8,13.8,13.8-6.2,13.8-13.8-6.1-13.8-13.8-13.8Z"/><path class="cls-1" d="m194.4,69.3v2.2c.1-.4.1-.8.1-1.2s0-.6-.1-1Z"/><path class="cls-1" d="m194.4,68.4h0c-1-16.5-14.6-29.5-31.4-29.5s-31.4,14.1-31.4,31.5c0,4.7,1.1,9.2,2.9,13.2,3,6.6,8.4,12,15,15.1,4.1,2.1,8.7,3.2,13.6,3.2s9.5-1.1,13.6-3.2c-.2,1.6-.7,3-1.4,4.4-2.2,4.5-6.9,7.5-12.2,7.5s-10-3-12.2-7.5h-18.6c2.9,14.3,15.6,25.2,30.9,25.2s27.9-10.8,30.9-25.2c.2-1.3.4-2.7.5-4.1.1-.2.1-.5.1-.8v-29.2c-.2-.2-.2-.4-.3-.6h0Zm-27.4,15.2c-1.2.4-2.6.6-4,.6s-2.7-.2-4-.6c-5.7-1.7-9.8-7-9.8-13.2,0-.6.1-1.3.2-1.9.9-6.7,6.6-11.9,13.6-11.9s12.8,5.2,13.6,11.9c.1.6.2,1.3.2,1.9.1,6.2-4.1,11.4-9.8,13.2h0Z"/><path class="cls-1" d="m234.1,101.8c-17.4,0-31.5-14.1-31.5-31.5s14.1-31.5,31.5-31.5,31.5,14.1,31.5,31.5-14.1,31.5-31.5,31.5Zm0-45.2c-7.6,0-13.8,6.2-13.8,13.8s6.2,13.8,13.8,13.8,13.8-6.2,13.8-13.8-6.2-13.8-13.8-13.8Z"/><path class="cls-1" d="m466.6,68.2h0v30.7h-17.8l.1-30.7c0-3.2-1.3-6.1-3.4-8.2-2.1-2.1-5-3.4-8.2-3.4-6.4,0-11.6,5.2-11.6,11.7h0l.1,30.7h-18l.1-30.7h0c0-16.2,13.2-29.3,29.3-29.3s29.4,13,29.4,29.2h0Z"/><polygon class="cls-1" points="328.5 81 328.5 98.9 273.7 98.9 273.7 22.1 291.6 22.1 291.6 81 328.5 81"/><polygon class="cls-1" points="54.8 81 54.8 98.9 0 98.9 0 22.1 17.9 22.1 17.9 81 54.8 81"/><path class="cls-1" d="m495.9,80.3c.2.2.5.5.7.6.1.1.2.1,0,0l.2.2c.3.2.6.4.9.6-.6-.4-1.2-.9-1.8-1.4h0Zm-1.8-2.2s0,.1.1.1c-.1-.1-.2-.2-.2-.4,0,.1.1.2.1.3h0Z"/><path class="cls-1" d="m519.2,22.1v20c-4.1-2-8.7-3.2-13.6-3.2-6.4,0-12.3,1.9-17.3,5.2-.1.1-.2.1-.3.2-.6.4-1.2.8-1.7,1.2-.6.5-1.1.9-1.7,1.4-.3.3-.7.6-1,.9-.3.3-.6.6-.9,1-.3.3-.6.7-.9,1s-.6.7-.9,1h0c-.3.4-.7.9-1,1.3-.2.2-.4.5-.5.8-3.4,5-5.3,11-5.3,17.5,0,7.2,2.4,13.8,6.5,19.1.1.2.3.3.5.5,9,10,23.7,12,35.7,6,.8-.4,1.6-.8,2.4-1.3v4.2h18V22l-18,.1h0Zm0,51.3v.5c-.1.2-.2.5-.3.7v.1c-1.8,5.6-7,9.6-13.2,9.6-2.4,0-4.6-.6-6.5-1.7-.2-.1-.5-.2-.7-.4,0,0-.1,0-.1-.1h0s-.1,0-.1-.1h0c-.1-.1-.2-.2-.3-.2,0,0-.1,0-.1-.1-.3-.2-.6-.4-.9-.6l-.2-.2s-.1-.1,0,0c-.2-.2-.5-.4-.7-.6l-.1-.1c-.1,0-.1-.1-.2-.2h0l-.2-.2c-.2-.2-.5-.5-.6-.8-.1-.2-.2-.3-.4-.5h0l-.1-.1-.1-.1c0-.1-.1-.2-.2-.3-.2-.3-.4-.6-.5-.9v-.1c-.2-.4-.4-.8-.6-1.1-.2-.4-.3-.9-.5-1.3-.1-.4-.2-.7-.3-1.1,0-.2-.1-.4-.1-.6s-.1-.4-.1-.5c0-.2-.1-.4-.1-.7v-1.2c0-1.4.2-2.8.6-4.1.3-.9.6-1.7,1-2.5.2-.3.3-.6.5-.8,2.4-3.9,6.8-6.5,11.7-6.5,7.7,0,13.9,6.2,13.9,13.9-.1.9-.3,1.9-.5,2.9h0Z"/><circle class="cls-1" cx="555.2" cy="89.6" r="10.5"/><path class="cls-1" d="m494,77.8c.1.1.2.3.2.4l-.1-.1c0-.1-.1-.2-.1-.3h0Z"/><path class="cls-1" d="m497.9,81.8c-.8-.5-1.4-1-2-1.7.5.7,1.2,1.2,2,1.7Z"/><path class="cls-1" d="m494,77.8c.1.1.2.3.2.4l-.1-.1c0-.1-.1-.2-.1-.3h0Z"/><path class="cls-1" d="m497.9,81.8c-.8-.5-1.4-1-2-1.7.5.7,1.2,1.2,2,1.7Z"/><path class="cls-1" d="m493.4,63.8c-.4.8-.8,1.6-1,2.5.2-.9.6-1.7,1-2.5Z"/><path class="cls-1" d="m494,77.8c.1.1.2.3.2.4l-.1-.1c0-.1-.1-.2-.1-.3h0Z"/><path class="cls-1" d="m495.9,80.3c.5.5,1.1,1,1.8,1.5-.3-.2-.6-.4-.9-.6l-.2-.2s-.1-.1,0,0c-.2-.3-.4-.5-.7-.7h0Z"/><path class="cls-1" d="m497.9,81.8c.1.1.2.2.3.2-.2-.1-.3-.2-.5-.3q.1.1.2.1h0Z"/><circle class="cls-1" cx="595.6" cy="14.7" r="14.3"/><path class="cls-1" d="m657,76.6c-8.5,13.2-23.2,21.9-40,21.9-26.2,0-47.6-21.4-47.6-47.6,0-2.7.2-5.3.6-7.8h-.8l.2,8.9c.5,25.8,21.8,46.8,47.6,46.8,16.2,0,31.2-8.2,40-21.8l.2-.2-.2-.2h0Z"/><path class="cls-1" d="m657,76.6c-8.5,13.2-23.2,21.9-40,21.9-26.2,0-47.6-21.4-47.6-47.6,0-2.7.2-5.3.6-7.8l18.2-.3c-.7,2.6-1.1,5.3-1.1,8.1,0,3.4.5,6.6,1.6,9.6h-.1c4,11.9,15.2,20.5,28.4,20.5,7.2,0,13.9-2.5,19.2-7h-.2c3.4-2.8,6.2-6.3,8-10.4l13,13h0Z"/><path class="cls-1" d="m637.1,0c8.5,2.2,16.4,6.5,22.9,12.5.3.2.5.5.8.7.3.3.5.5.8.8.6.6,1.1,1.1,1.6,1.7.9,1,1.7,2,2.5,3l-15.3,12c-.1-.1-.2-.2-.2-.3-.2-.3-.4-.6-.7-.8-.2-.3-.5-.5-.7-.8h0c-.4-.4-.8-.9-1.2-1.3-.3-.3-.6-.6-1-.9-.3-.3-.6-.5-.9-.8-3.1-2.7-6.8-4.8-10.6-6.2l2-19.6h0Z"/></svg>