<?xml version="1.0" encoding="UTF-8"?>
<svg id="Layer_1" data-name="Layer 1" xmlns="http://www.w3.org/2000/svg" viewBox="0 0 661.85 131.34">
  <defs>
    <style>
      .cls-1 {
        fill: #fff;
        stroke-width: 0px;
      }
    </style>
  </defs>
  <g>
    <path class="cls-1" d="m65.58,45.74c.17-1.17.33-2.34.33-3.67,0-7.34-4.84-10.18-11.51-10.18-6.01,0-10.68,3.34-12.51,12.51l-2.67,13.85h38.71l-4.34,22.53h-38.71l-9.51,48.39H0L16.85,42.07C21.19,19.37,36.38,8.53,55.4,8.53c20.69,0,35.88,10.18,35.88,30.54,0,2.34-.17,4.51-.5,6.68h-25.2Z"/>
    <path class="cls-1" d="m132.32,44.57c23.03,0,41.38,14.85,41.38,39.38,0,26.2-21.03,47.39-48.56,47.39-23.2,0-41.55-14.85-41.55-39.21,0-26.2,21.03-47.56,48.73-47.56Zm15.69,40.88c0-10.68-6.51-17.52-17.19-17.52-13.68,0-21.53,11.18-21.53,22.69,0,10.68,6.67,17.35,17.19,17.35,13.02,0,21.53-10.18,21.53-22.53Z"/>
    <path class="cls-1" d="m230.77,44.57c23.03,0,41.38,14.85,41.38,39.38,0,26.2-21.03,47.39-48.56,47.39-23.2,0-41.55-14.85-41.55-39.21,0-26.2,21.03-47.56,48.73-47.56Zm15.69,40.88c0-10.68-6.51-17.52-17.19-17.52-13.68,0-21.53,11.18-21.53,22.69,0,10.68,6.67,17.35,17.19,17.35,13.02,0,21.53-10.18,21.53-22.53Z"/>
    <path class="cls-1" d="m329.22,44.57c23.03,0,41.38,14.85,41.38,39.38,0,26.2-21.03,47.39-48.56,47.39-23.2,0-41.55-14.85-41.55-39.21,0-26.2,21.03-47.56,48.73-47.56Zm15.69,40.88c0-10.68-6.51-17.52-17.19-17.52-13.68,0-21.53,11.18-21.53,22.69,0,10.68,6.67,17.35,17.19,17.35,13.02,0,21.53-10.18,21.53-22.53Z"/>
    <path class="cls-1" d="m378.78,92.13c0-25.87,19.86-47.56,45.22-47.56,11.68,0,20.69,4.67,25.03,13.52l9.18-47.39h25.53l-15.85,80.93c-5.01,25.36-23.53,39.71-47.22,39.71s-41.88-14.52-41.88-39.21Zm64.58-6.51c0-10.85-7.34-17.69-17.52-17.69-13.18,0-21.36,11.18-21.36,22.86,0,10.68,7.01,17.19,17.35,17.19,13.35,0,21.53-10.85,21.53-22.36Z"/>
    <path class="cls-1" d="m495.08,46.74h25.03l-16.02,82.43h-25.03l16.02-82.43Zm.83-22.19c0-9.68,7.84-17.35,17.69-17.35,8.84,0,14.85,6.01,14.85,14.52,0,9.84-8.18,17.52-17.69,17.52-8.68,0-14.85-6.17-14.85-14.68Z"/>
    <path class="cls-1" d="m575.68,71.27c-.33-4-3.5-6.34-9.35-6.34-6.34,0-9.18,3-9.18,6.17,0,5.34,7.68,6.68,13.18,8.18,11.68,3.17,25.03,8.51,25.03,23.36,0,20.02-14.68,28.7-35.38,28.7s-36.04-9.84-36.04-27.2h24.86c0,4.5,3.84,6.67,11.01,6.67,7.68,0,10.18-2.5,10.18-5.84,0-5.17-6.01-6.51-12.85-8.18-10.35-2.5-25.36-7.68-25.36-23.53,0-19.69,14.68-28.87,34.54-28.87s33.88,9.85,33.88,26.87h-24.53Z"/>
  </g>
  <path class="cls-1" d="m645,111.83c0,9.68-7.84,17.35-17.69,17.35-8.84,0-14.85-6.01-14.85-14.52,0-9.84,8.18-17.52,17.69-17.52,8.68,0,14.85,6.17,14.85,14.68Zm.83-22.19h-25.03l16.02-82.43h25.03l-16.02,82.43Z"/>
  <g>
    <path class="cls-1" d="m512.43,40.71c-.09.03-.16.05-.22.06-.98.28-1.97.38-2.98.23-.61-.09-1.19-.29-1.74-.58-.18-.1-.37-.17-.58-.22-.7-.15-1.39-.33-2.1-.46-1.32-.24-2.64-.22-3.95.1-.42.1-.81.29-1.14.59-.14.13-.28.25-.41.39-.18.18-.4.31-.65.37-.34.07-.68.12-1.02.18-.19.03-.35-.06-.53-.12.04-.01.08-.03.12-.03.36-.03.68-.17.96-.4,0,0,.02-.01.03-.02.43-.27.81-.6,1.15-.97.51-.54,1.15-.86,1.86-1.06.66-.19,1.33-.28,2.02-.35.06,0,.11-.01.2-.02-.04-.04-.07-.07-.09-.08-.32-.22-.66-.42-.97-.65-.36-.27-.69-.57-1.04-.85-.54-.43-1.08-.86-1.62-1.29-.1-.08-.2-.15-.3-.23-.45-.34-.93-.6-1.46-.79-.12-.04-.26-.06-.39-.08-.18-.03-.32.04-.43.18-.29.39-.86.55-1.31.38-.15-.06-.29-.14-.38-.28-.19-.27-.33-.55-.29-.89.04-.34.21-.6.5-.78.24-.15.49-.15.73,0,.17.11.33.23.49.35.06.04.11.08.17.12.16.09.24.08.36-.06.08-.08.15-.18.21-.27.03-.04.03-.11.03-.16-.01-.11-.04-.23-.06-.34-.06-.3-.1-.61-.1-.92,0-.32-.08-.64-.22-.93-.1-.2-.22-.39-.4-.53-.38-.32-.75-.64-1.12-.97-.16-.14-.32-.3-.47-.45-.52-.49-1.11-.85-1.79-1.06-.16-.05-.33-.11-.5-.14-.12-.02-.24-.03-.36-.02-.17,0-.32.07-.45.18-.2.17-.36.37-.48.6-.16.3-.32.61-.49.91-.19.34-.47.58-.84.71-.51.18-1.03.17-1.53-.05-.68-.29-1.02-1.07-.78-1.76.22-.62.68-.94,1.32-1.03.36-.05.71-.06,1.06.02.53.12,1.03,0,1.53-.2.67-.26,1.34-.25,1.99.05.26.12.51.28.77.42.07.04.14.08.22.12.1-.24.17-.46.2-.7.02-.2.03-.41.02-.62,0-.22-.03-.44-.03-.65,0-.27-.1-.48-.27-.67-.15-.18-.32-.34-.49-.5-.15-.14-.33-.22-.53-.28-.21-.07-.41-.04-.59.07-.22.14-.45.28-.71.34-.34.08-.67.08-1-.01-.29-.08-.51-.25-.65-.53-.12-.23-.2-.48-.22-.74-.02-.35.07-.68.32-.93.41-.43.92-.6,1.5-.44.27.07.5.24.69.43.14.14.27.28.4.43.31.34.48.38.89.19.09-.04.19-.08.28-.13.18-.09.33-.2.47-.34.11-.12.18-.25.17-.4-.01-.18-.02-.37-.08-.54-.17-.47-.34-.94-.54-1.4-.23-.54-.63-.95-1.1-1.29-.68-.49-1.42-.86-2.21-1.15-.25-.09-.5-.2-.74-.32-.46-.25-.82-.61-1.01-1.11-.36-.94.2-2.17,1.23-2.39.46-.1.89,0,1.29.24.45.27.78.66.99,1.13.13.29.25.58.35.88.25.74.67,1.39,1.16,2,.35.43.72.85,1.08,1.27.02.02.04.05.09.1.02-.09.04-.15.06-.21.15-.66.29-1.32.43-1.98.06-.28.16-.55.29-.8.13-.24.33-.38.58-.45.08-.02.16-.03.23-.06.23-.07.43-.18.59-.37.18-.21.36-.42.53-.63.15-.19.23-.4.22-.65,0-.19,0-.38.08-.57-.06,0-.11,0-.15,0-.34.05-.68.12-.99.28-.24.13-.5.2-.77.24-.69.1-1.27-.2-1.55-.85-.32-.74-.27-1.47.11-2.17.36-.66,1-.92,1.74-.76.33.07.63.21.92.38.2.12.39.27.58.4.29.2.59.34.95.36.14,0,.29.05.43.03.18-.01.36-.05.52-.11.46-.17.7-.55.67-1.05-.01-.24-.08-.47-.18-.7-.19-.46-.37-.93-.49-1.41-.09-.35-.15-.7-.14-1.05,0-.17.02-.33.06-.49.12-.49.43-.78.92-.89.28-.06.56-.06.84-.02.61.08,1.19.28,1.76.52.61.26,1.19.59,1.76.94.05.03.1.05.16.06.19.01.38.02.57.02.07,0,.14,0,.21-.02.38-.05.61-.26.72-.62.07-.26.14-.52.22-.78.07-.23.15-.44.28-.64.21-.33.51-.46.9-.4.29.04.56.17.82.3.14.07.29.14.45.17.54.11,1-.16,1.19-.67.13-.36.12-.72.02-1.08-.02-.06-.06-.11-.1-.15-.28-.31-.55-.64-.72-1.02-.17-.38-.23-.77-.09-1.17.1-.28.28-.51.5-.71.25-.22.51-.41.84-.49.9-.21,1.79.46,1.87,1.41.02.29-.03.56-.11.83-.24.74-.43,1.49-.52,2.26-.03.23-.04.46-.02.69,0,.16.04.33.1.48.09.25.29.37.55.35.14-.01.29-.04.42-.1.22-.1.44-.23.65-.35.05-.03.09-.07.13-.12.28-.3.62-.46,1.04-.45.11,0,.23,0,.34,0,.41,0,.77-.11,1.08-.38.13-.11.26-.22.4-.33.18-.16.38-.2.62-.13.32.09.59.26.83.47.23.19.48.33.75.45.17.08.33.09.5.04.14-.04.28-.08.41-.12.24-.08.44-.02.62.14.12.1.23.21.34.31.21.2.36.22.59.03.13-.11.24-.26.38-.38.18-.16.36-.34.57-.47.69-.45,1.41-.36,1.98.23.13.13.23.27.31.43.3.56.45,1.15.43,1.79,0,.3,0,.61,0,.91,0,.13.06.23.14.32.36.39.81.52,1.33.42.34-.06.65-.22.94-.42.59-.43,1.04-.97,1.27-1.67.06-.19.09-.4.11-.61,0-.1-.02-.21-.05-.3-.29-.76-.13-1.43.37-2.04.22-.27.47-.51.77-.68.48-.28.98-.35,1.5-.11.26.12.49.3.67.53.34.43.53.91.53,1.46,0,.75-.32,1.32-.97,1.71-.25.15-.53.24-.82.31-.1.02-.2.06-.28.12-.66.43-1.23.95-1.75,1.54-.55.62-1.02,1.3-1.41,2.03-.31.58-.57,1.19-.74,1.83-.02.06-.03.12-.03.19,0,.67.51,1.35,1.14,1.55.51.16.95.02,1.32-.35.17-.18.28-.39.39-.6.16-.3.37-.57.64-.78.36-.28.76-.41,1.21-.22.43.19.68.54.74,1.01.06.46-.14.81-.5,1.09-.28.21-.6.32-.93.39-.21.05-.41.12-.58.25-.15.11-.26.24-.32.42-.08.24-.03.43.17.58.12.09.26.17.39.25.25.14.44.32.58.57.14.27.25.54.32.83.03.12.05.23.09.35.07.24.22.38.48.41.24.03.48.02.72-.03.42-.1.84-.21,1.25-.32.38-.11.75-.23,1.12-.35.18-.06.36-.09.54-.07.21.02.42.05.63.06.2.01.4.02.6.01.27-.01.5-.12.69-.31.34-.33.71-.62,1.14-.83.23-.11.48-.21.73-.24.15-.02.31-.03.46-.02.61.05,1.01.43,1.1,1.04.11.81-.36,1.56-1.14,1.8-.58.18-1.13.11-1.67-.15-.12-.06-.23-.13-.35-.18-.4-.18-.82-.19-1.25-.1-.41.09-.79.24-1.16.44-.51.27-1.01.56-1.53.83-.34.18-.69.33-1.05.48-.26.11-.54.16-.82.19-.2.02-.38.08-.54.2-.19.13-.31.31-.34.54-.04.29,0,.56.24.77.26.24.52.49.76.75.14.15.27.32.37.49.17.29.12.51-.13.73-.19.17-.41.24-.66.28-.1.02-.21.03-.3.06-.27.09-.44.28-.52.55-.18.6.22,1.47,1.1,1.57.26.03.51-.02.76-.09.31-.09.63-.17.95-.24.25-.05.5-.06.75-.02.1.02.2.04.3.07.45.15.74.5.76.98.02.69-.27,1.24-.88,1.58-.42.23-.85.22-1.25-.06-.11-.08-.22-.16-.33-.25-.31-.25-.66-.38-1.07-.3-.11.02-.22.03-.33.03-.5.04-.91.25-1.25.62-.35.38-.59.8-.66,1.31-.09.66.23,1.05.89,1.09.15,0,.3,0,.45,0,.5-.03,1,.01,1.47.2.38.15.69.39.9.74.39.64.23,1.41-.21,1.92-.57.67-1.62.81-2.41.17-.31-.25-.52-.57-.71-.92-.35-.64-.86-1.11-1.55-1.38-.19-.07-.39-.11-.59-.11-.42.02-.7.22-.86.6-.15.37-.16.75-.12,1.14,0,.05.04.11.07.15.16.25.28.51.35.8.07.31.08.61-.02.92-.17.48-.57.77-1.07.76-.41,0-.77-.17-1.09-.42-.11-.08-.2-.17-.3-.25-.09-.07-.18-.14-.28-.2-.18-.11-.35-.1-.51.03-.12.09-.22.2-.27.35-.07.21-.14.43-.21.64-.02.07-.04.14-.07.21-.15.37-.45.54-.83.58-.46.04-.91.08-1.37.11-.2.01-.35.09-.46.26-.26.36-.42.76-.46,1.21-.02.25-.03.5-.05.76-.01.28-.03.55-.13.81-.07.2-.18.38-.27.57-.04.07-.09.13-.12.21-.23.52-.14.91.3,1.27.2.17.42.32.63.47.23.17.45.36.62.59.3.41.35.86.18,1.32-.13.32-.36.59-.66.77-.47.29-.98.39-1.52.25-.44-.11-.76-.39-.95-.8-.16-.35-.23-.72-.12-1.1.08-.26.13-.53.2-.8.02-.07.03-.14.04-.2.13-.63-.12-1.11-.61-1.48-.11-.08-.22-.16-.34-.24-.52-.33-.93-.78-1.24-1.31-.19-.32-.51-.39-.82-.19-.28.19-.45.46-.56.76-.2.55-.59.89-1.15,1.03-.17.04-.35.08-.52.13-.2.06-.36.18-.46.36-.06.1-.08.19-.05.31.1.36.09.72-.06,1.06-.2.46-.54.76-1.04.87-.35.08-.68.02-.96-.2-.12-.09-.23-.19-.33-.3-.33-.35-.39-.8-.18-1.23.19-.38.46-.67.85-.84.04-.02.09-.05.1-.08.15-.34.28-.69.33-1.1Z"/>
    <path class="cls-1" d="m497.38.76c.26-.39.61-.64,1.06-.73.37-.08.72-.01,1.04.19.64.4,1.06.96,1.23,1.69.13.59-.01,1.13-.45,1.56-.25.24-.56.36-.9.38-.89.06-1.7-.43-2.11-1.26-.24-.5-.26-1-.04-1.51.05-.11.12-.21.18-.31Z"/>
    <path class="cls-1" d="m532.57,40.5c-.35.49-.79.73-1.38.66-.3-.04-.56-.18-.78-.4-.48-.49-.76-1.09-.92-1.74-.07-.28-.06-.56,0-.84.07-.31.26-.5.58-.56.46-.09.9-.02,1.34.13.51.18.91.49,1.2.96.37.61.35,1.21-.03,1.8Z"/>
    <path class="cls-1" d="m490.57,31.64c.27-.37.6-.62,1.05-.69.23-.03.46,0,.67.11.39.22.7.53.9.95.24.51.04,1.11-.36,1.42-.37.29-.79.42-1.25.39-.34-.02-.62-.16-.82-.44-.15-.21-.27-.43-.34-.67-.1-.39-.05-.75.16-1.07Z"/>
    <path class="cls-1" d="m496.21,41.78c.06.09.02.16-.04.22-.11.12-.23.24-.34.36-.23.25-.44.5-.55.82-.02.06-.05.12-.08.17-.1.17-.24.29-.45.3-.11,0-.23,0-.34,0-.41-.03-.62-.38-.64-.65-.03-.38.09-.71.39-.96.11-.09.23-.15.37-.16.15-.02.31-.03.46-.02.27.01.54,0,.8-.07.14-.03.28-.05.42-.02Z"/>
  </g>
</svg>